<?xml version="1.0" encoding="utf-8" ?>
<svg xmlns="http://www.w3.org/2000/svg" xmlns:xlink="http://www.w3.org/1999/xlink" width="512" height="512">
	<path d="M257.928 240.68L255.774 238.594L129.655 348.609C114.385 360.591 89.2449 350.935 86.9169 331.722C86.6863 329.818 86.8579 327.753 86.8701 325.834L86.9276 199.801C86.9369 182.059 88.7162 179.386 100.314 167.564L137.248 129.481L228.523 37.821C235.77 30.69 241.867 24.527 252.422 22.8297L252.922 22.7864C269.338 21.4109 278.807 33.4791 289.201 43.9767L407.241 163.426C422.273 179.012 425.159 178.261 425.091 199.675L425.064 324.294C425.062 326.786 425.166 329.404 424.803 331.875C422.046 350.665 400.255 359.938 384.089 350.072C378.481 346.649 373.67 341.727 368.755 337.41L257.928 240.68ZM255.834 94.3598C253.429 97.4098 250.58 100.095 247.842 102.842L156.001 196.407C152.835 199.667 149.998 203.344 146.657 206.417C146.332 207.934 146.477 209.62 146.47 211.169L146.742 251.564C146.903 251.358 152.936 246.812 153.846 246.027L234.961 176.653C241.727 171.054 247.482 164.865 257.05 165.642C264.339 166.058 269.032 170.465 274.414 174.832L357.614 246.477C359.313 247.922 364.341 251.543 365.296 252.826L365.358 208.355C365.383 207.014 365.754 206.575 364.714 205.625L364.227 205.237C361.03 202.706 358.161 198.923 355.368 195.904L255.834 94.3598Z"/>
	<path d="M260.343 486.993C250.723 487.018 240.344 488.405 232.887 481.036C226.838 475.059 226.244 469.489 226.247 461.652L226.121 391.13C225.077 392.086 223.996 392.402 222.884 393.214L148.659 453.453C141.457 459.382 134.319 467.255 124.711 468.989C97.6421 473.875 80.0225 443.687 94.7899 422.945C97.4034 419.274 100.891 416.449 104.307 413.564L227.33 311.62C234.758 305.51 242.586 297.51 252.423 295.823L258.205 295.761C268.495 296.332 282.604 311.124 290.313 317.387L405.657 412.861C408.874 415.41 412.235 417.901 414.955 420.994C436.896 445.932 405.919 483.64 376.804 465.171C374.021 463.406 371.465 461.229 368.91 459.153L288.893 393.918C287.894 393.121 286.304 392.365 285.555 391.415L285.286 391.054C285.078 393.309 285.23 395.696 285.23 397.964L285.253 461.879C285.24 473.166 281.948 482.483 269.725 486.183C266.741 487.087 263.437 486.914 260.343 486.993Z"/>
</svg>
